<svg version="1.2" xmlns="http://www.w3.org/2000/svg" viewBox="0 0 306 212" width="306" height="212">
	<title>shape-006@1x-svg</title>
	<style>
		.s0 { fill: none;stroke: #ff8e3c;stroke-width: 3 } 
		.s1 { fill: #ff8e3c } 
	</style>
	<path id="Layer" class="s0" d="m10 113.9c0-57.4 46.5-103.9 103.9-103.9h81.4c57.4 0 103.9 46.5 103.9 103.9-4.9 54.5-18.8 69.6-30.4 73.5-17.8 6.1-29.2-14.7-60.9-15.6-29.4-0.8-34.4 16.7-72.3 26.2-15 3.8-62.3 15.6-95.1-10.6-29.1-23.1-30.4-63.1-30.5-73.5z"/>
	<path id="JS" class="s1" aria-label="JS"  d="m141.6 112.8c0 2.6-1.3 3.9-3.3 3.9-2.2 0-3.5-1.4-3.5-4.4h-8.5c0 7.9 5 12 12.3 12 6.9 0 11.5-4 11.5-11.5v-23.9h-8.5zm40.9 0.8c0-11.8-17.3-9-17.3-15.1 0-2.2 1.5-3.3 3.6-3.2 2.3 0 3.9 1.4 4 3.6h9.3c-0.4-6.7-5.5-10.5-13.2-10.5-7.3 0-12.8 3.7-12.8 10.4-0.1 12.4 17.5 8.9 17.5 15.4 0 2.1-1.7 3.3-4.2 3.3-2.3 0-4-1.3-4.3-4h-9.1c0.3 7.1 6.2 10.9 13.7 10.9 8.2 0 12.8-4.9 12.8-10.8z"/>
</svg>