<svg version="1.2" xmlns="http://www.w3.org/2000/svg" viewBox="0 0 301 209" width="301" height="209">
	<title>shape-006@1x-svg</title>
	<style>
		.s0 { fill: #d9376e } 
		.s1 { fill: #eff0f3 } 
	</style>
	<path id="Layer" class="s0" d="m295.1 97.4c0 57.4-46.6 103.9-104 103.9h-81.3c-57.4 0-104-46.5-104-103.9 5-54.4 18.8-69.6 30.5-73.5 17.8-6.1 29.2 14.7 60.8 15.6 29.5 0.9 34.5-16.7 72.3-26.2 15-3.8 62.4-15.6 95.2 10.6 29 23.1 30.4 63.1 30.5 73.5z"/>
	<path id="Symfony" class="s1" aria-label="Symfony"  d="m62.6 106.5c0-11.7-17.4-9-17.4-15 0-2.3 1.6-3.3 3.6-3.3 2.4 0.1 3.9 1.5 4.1 3.7h9.3c-0.4-6.7-5.5-10.5-13.2-10.5-7.4 0-12.8 3.7-12.8 10.3-0.1 12.5 17.5 9 17.5 15.5 0 2-1.7 3.3-4.2 3.3-2.4 0-4.1-1.3-4.3-4h-9.1c0.2 7.1 6.1 10.8 13.7 10.8 8.2 0 12.8-4.8 12.8-10.8zm18.1 0l-6.5-17.4h-9.5l11.3 26.9-6.3 14.3 9.1-0.1 17.5-41.1h-9.2zm57.2 10.4h8.5v-16.3c0-7.5-4.5-11.9-11.4-11.9-4 0-7.5 2.3-9.4 5.2-1.9-3.3-5.3-5.2-9.5-5.2-3.6 0-6.5 1.6-8.1 3.8v-3.5h-8.6v27.9h8.6v-15.1c0-3.6 2.1-5.6 5.3-5.6 3.3 0 5.4 2 5.4 5.6v15.1h8.5v-15.1c0-3.6 2.1-5.6 5.3-5.6 3.3 0 5.4 2 5.4 5.6zm15.3 0h8.6v-20.8h4.6v-7.1h-4.6v-0.3c0-2.9 1.1-3.9 4.4-3.7v-7.3c-8.5-0.4-13 3.2-13 10.5v0.8h-3.1v7.1h3.1zm44.5-14c0-8.8-6.3-14.3-14.5-14.3-8.2 0-14.5 5.5-14.5 14.3 0 8.9 6.2 14.4 14.4 14.4 8.2 0 14.6-5.5 14.6-14.4zm-20.3 0c0-4.7 2.7-6.9 5.8-6.9 3 0 5.8 2.2 5.8 6.9 0 4.7-2.9 7-5.9 7-3.1 0-5.7-2.3-5.7-7zm44.1 14h8.5v-16.3c0-7.5-4.3-11.9-10.8-11.9-3.7 0-6.7 1.7-8.4 4v-3.7h-8.6v27.9h8.6v-15.2c0-3.8 2.1-5.8 5.3-5.8 3.3 0 5.4 2 5.4 5.8zm27.3-10.4l-6.4-17.5h-9.6l11.4 27-6.4 14.2h9.1l17.6-41.2h-9.3z"/>
</svg>