<svg version="1.2" xmlns="http://www.w3.org/2000/svg" viewBox="0 0 331 207" width="331" height="207">
	<title>shape-006@1x-svg</title>
	<style>
		.s0 { fill: #000000 } 
		.s1 { fill: #ff8e3c } 
		.s2 { fill: #eff0f3 } 
	</style>
	<g id="Layer" style="opacity: .1">
		<path id="Layer" class="s0" d="m8.3 110.9c0-57.4 46.5-103.9 103.9-103.9h81.4c2.9 0 5.7 0.1 8.6 0.4h-66.5c-57.4 0-103.9 46.5-103.9 103.9 0.1 10.3 1.4 50.3 30.4 73.5 12.1 9.6 26.2 14.1 39.8 15.7-19.8 1.5-44-0.7-63.3-16.1-29-23.1-30.3-63.1-30.4-73.5z"/>
		<path id="Layer" class="s0" d="m217.4 170c3.6-0.7 7.7-0.9 12.3-0.9 16 0.5 26.8 6 35.9 10.6 2 1 3.8 2 5.7 2.8-1.5 0.9-2.8 1.6-4.3 2-8.8 3-16-0.7-25-5.2-6.8-3.4-14.5-7.3-24.6-9.3z"/>
	</g>
	<path id="Layer" class="s1" d="m321 111.3c-2.4 27.2-7.1 44.6-12.7 55.7-5.6 11.1-12 15.9-17.8 17.8-6.8 2.3-12.7 0.6-19.2-2.4-10.3-4.7-22.2-12.7-41.6-13.3-4.6-0.1-8.7 0.1-12.3 0.9-19.5 3.6-28 17.3-60 25.3-9.5 2.3-31.9 8-55.4 5.2-13.6-1.6-27.7-6.1-39.8-15.7-29-23.2-30.3-63.2-30.4-73.5 0-57.4 46.5-103.9 103.9-103.9h81.4c57.4 0 103.9 46.5 103.9 103.9z"/>
	<path id="Docker" class="s2" aria-label="Docker"  d="m100.3 86.9h-13.2v35.1h13.2c11.2 0 18.4-7.2 18.4-17.6 0-10.4-7.2-17.5-18.4-17.5zm-4.6 27.7v-20.4h4c6.5 0 10.3 3.8 10.3 10.2 0 6.5-3.8 10.2-10.3 10.2zm55.1-6.6c0-8.8-6.3-14.3-14.5-14.3-8.2 0-14.5 5.5-14.5 14.3 0 8.9 6.2 14.4 14.4 14.4 8.2 0 14.6-5.5 14.6-14.4zm-20.3 0c0-4.7 2.7-6.9 5.8-6.9 3 0 5.8 2.2 5.8 6.9 0 4.7-2.9 7-5.9 7-3.1 0-5.7-2.3-5.7-7zm23.2 0c0 8.9 5.8 14.4 14 14.4 7 0 11.9-4.1 13.4-10.5h-9.1c-0.8 2-2.1 3.2-4.5 3.2-3 0-5.1-2.4-5.1-7.1 0-4.6 2.1-7 5.1-7 2.4 0 3.7 1.2 4.5 3.2h9.1c-1.5-6.7-6.4-10.5-13.4-10.5-8.2 0-14 5.5-14 14.3zm31.9 14h8.6v-11.7l8.5 11.7h10.5l-11.6-13.9 11.5-14h-10.5l-8.4 11.3v-20.4h-8.6zm43.2-21.5c2.8 0 5.2 1.8 5.2 4.8h-10.7c0.5-3.1 2.7-4.8 5.5-4.8zm13.3 12.2h-9.1c-0.7 1.5-2 2.7-4.4 2.7-2.8 0-5-1.7-5.3-5.3h19.3c0.1-0.9 0.2-1.7 0.2-2.5 0-8.5-5.8-13.9-13.9-13.9-8.3 0-14.1 5.5-14.1 14.3 0 8.9 5.9 14.4 14.1 14.4 7 0 11.9-4.2 13.2-9.7zm13.8-3.7c0-4.8 2.3-6.2 6.4-6.2h2.3v-9c-3.7 0-6.8 2-8.7 4.9v-4.6h-8.6v27.9h8.6z"/>
</svg>