<svg version="1.2" xmlns="http://www.w3.org/2000/svg" viewBox="0 0 311 211" width="311" height="211">
	<title>shape-006@1x-svg</title>
	<style>
		.s0 { fill: none;stroke: #2a2a2a;stroke-width: 3 } 
		.s1 { fill: #000000 } 
	</style>
	<path id="Layer" class="s0" d="m10 114.9c0-57.4 46.5-103.9 103.9-103.9h81.4c57.4 0 103.9 46.5 103.9 103.9-4.9 54.5-18.8 69.6-30.4 73.5-17.8 6.1-29.2-14.7-60.9-15.6-29.4-0.8-34.4 16.7-72.3 26.2-15 3.8-62.3 15.6-95.1-10.6-29.1-23.1-30.4-63.1-30.5-73.5z"/>
	<path id="PHP" class="s1" aria-label="PHP"  d="m115.7 106.6v-8.8h4.6c3.4 0 4.9 1.7 4.9 4.4 0 2.7-1.5 4.4-4.9 4.4zm18.2-4.4c0-6.4-4.3-11.3-12.9-11.3h-13.9v35.1h8.6v-12.6h5.3c8.9 0 12.9-5.4 12.9-11.2zm26.3 23.8h8.5v-35.1h-8.5v13.8h-13.3v-13.8h-8.5v35.1h8.5v-14.4h13.3zm23.2-19.5v-8.8h4.7c3.4 0 4.8 1.8 4.8 4.5 0 2.7-1.4 4.3-4.8 4.3zm18.2-4.3c0-6.5-4.3-11.3-12.9-11.3h-13.9v35.1h8.6v-12.6h5.3c9 0 12.9-5.4 12.9-11.2z"/>
</svg>