<svg version="1.2" xmlns="http://www.w3.org/2000/svg" viewBox="0 0 332 210" width="332" height="210">
	<title>shape-006@1x-svg</title>
	<style>
		.s0 { fill: #000000 } 
		.s1 { fill: #2a2a2a } 
		.s2 { fill: #eff0f3 } 
	</style>
	<g id="Layer" style="opacity: .1">
		<path id="Layer" class="s0" d="m9.3 112.9c0-57.4 46.5-103.9 103.9-103.9h81.4c2.9 0 5.7 0.1 8.6 0.4h-66.5c-57.4 0-103.9 46.5-103.9 103.9 0.1 10.3 1.4 50.3 30.4 73.5 12.1 9.6 26.2 14.1 39.8 15.7-19.8 1.5-44-0.7-63.3-16.1-29-23.1-30.3-63.1-30.4-73.5z"/>
		<path id="Layer" class="s0" d="m218.4 172c3.6-0.7 7.7-0.9 12.3-0.9 16 0.5 26.8 6 35.9 10.6 2 1 3.8 2 5.7 2.8-1.5 0.9-2.8 1.6-4.3 2-8.8 3-16-0.7-25-5.2-6.8-3.4-14.5-7.3-24.6-9.3z"/>
	</g>
	<path id="Layer" class="s1" d="m322 113.3c-2.4 27.2-7.1 44.6-12.7 55.7-5.6 11.1-12 15.9-17.8 17.8-6.8 2.3-12.7 0.6-19.2-2.4-10.3-4.7-22.2-12.7-41.6-13.3-4.6-0.1-8.7 0.1-12.3 0.9-19.5 3.6-28 17.3-60 25.3-9.5 2.3-31.9 8-55.4 5.2-13.6-1.6-27.7-6.1-39.8-15.7-29-23.2-30.3-63.2-30.4-73.5 0-57.4 46.5-103.9 103.9-103.9h81.4c57.4 0 103.9 46.5 103.9 103.9z"/>
	<path id="Sylius" class="s2" aria-label="Sylius"  d="m128.6 109.5c0-11.7-17.3-9-17.3-15 0-2.3 1.5-3.3 3.6-3.3 2.3 0.1 3.9 1.5 4 3.7h9.3c-0.4-6.7-5.5-10.5-13.2-10.5-7.3 0-12.8 3.7-12.8 10.3-0.1 12.5 17.5 9 17.5 15.5 0 2-1.6 3.3-4.1 3.3-2.4 0-4.1-1.3-4.4-4h-9.1c0.2 7.1 6.2 10.8 13.7 10.8 8.2 0 12.8-4.8 12.8-10.8zm18.1 0l-6.4-17.4h-9.6l11.4 26.9-6.4 14.3 9.1-0.1 17.5-41.1h-9.2zm18.7 10.4h8.6v-37h-8.6zm14.8 0h8.6v-27.9h-8.6zm4.3-30.8c3 0 5.1-2 5.1-4.6 0-2.6-2.1-4.6-5.1-4.6-3.1 0-5.1 2-5.1 4.6 0 2.6 2 4.6 5.1 4.6zm38 2.9h-8.6v15.2c0 3.8-2 5.9-5.3 5.9-3.2 0-5.4-2.1-5.4-5.9v-15.2h-8.5v16.3c0 7.5 4.4 11.9 10.8 11.9 3.8 0 6.8-1.7 8.4-4.1v3.8h8.6zm28.8 19.9c-0.1-10.5-15.2-7.3-15.2-11.8 0-1.3 1.1-2.1 3.1-2.1 2.4 0 3.8 1.2 4.1 3.1h7.9c-0.6-5.5-4.6-9.5-11.8-9.5-7.3 0-11.3 3.9-11.3 8.7 0 10.2 15.2 7 15.2 11.5 0 1.2-1.2 2.2-3.4 2.2-2.3 0-4.1-1.3-4.3-3.2h-8.5c0.5 5.4 5.5 9.6 12.9 9.6 7 0 11.3-3.7 11.3-8.5z"/>
</svg>